# xmcd CD database file
#
# Track frame offsets:
#	150
#	11978
#	17331
#	41298
#	62911
#	80923
#	95239
#	119025
#	134228
#	149113
#	164497
#	178737
#	196692
#	219724
#	242154
#	259439
#	277296
#	296178
#
# Disc length: 4148 seconds
#
# Revision: 0
# Processed by: cddbd v1.5.2PL0 Copyright (c) Steve Scherf et al.
# Submitted via: CDex 1.70beta2
#
DISCID=36103212
DTITLE=Count Basie - April In Paris
DYEAR=1900
DGENRE=Jazz
TTITLE0=April In Paris (Pt. 1)
TTITLE1=April In Paris (Pt. 2)
TTITLE2=Corner Pocket
TTITLE3=Didn't You?
TTITLE4=Sweetie Cakes
TTITLE5=Magic
TTITLE6=Shiny Stockings
TTITLE7=What Am I Here For?
TTITLE8=Midgets
TTITLE9=Mambo Inn
TTITLE10=Dinner With Friends
TTITLE11=April In Paris (Alternate Take)
TTITLE12=Corner Pocket (Alternate Take)
TTITLE13=Didn't You? (Alternate Take)
TTITLE14=Magic (2) (Alternate Take)
TTITLE15=Magic (3) (Alternate Take)
TTITLE16=What Am I Here For? (Alternate Take)
TTITLE17=Midgets (Alternate Take)
EXTD=
EXTT0=
EXTT1=
EXTT2=
EXTT3=
EXTT4=
EXTT5=
EXTT6=
EXTT7=
EXTT8=
EXTT9=
EXTT10=
EXTT11=
EXTT12=
EXTT13=
EXTT14=
EXTT15=
EXTT16=
EXTT17=
PLAYORDER=
